<?xml version="1.0" encoding="utf-8"?>
<!-- Generator: Adobe Illustrator 30.6.0, SVG Export Plug-In . SVG Version: 9.03 Build 0)  -->
<svg version="1.1" xmlns="http://www.w3.org/2000/svg" xmlns:xlink="http://www.w3.org/1999/xlink" x="0px" y="0px"
	 viewBox="0 0 500 500" style="enable-background:new 0 0 500 500;" xml:space="preserve">
<style type="text/css">
	.st0{display:none;}
	.st1{display:inline;}
	.st2{fill:none;stroke:#F9ECD5;stroke-width:30;stroke-linecap:round;stroke-linejoin:round;}
	.st3{fill:none;stroke:#F9ECD5;stroke-width:30;stroke-linecap:round;stroke-linejoin:round;stroke-dasharray:25.1687,58.727;}
	.st4{fill:none;stroke:#F9ECD5;stroke-width:30;stroke-linecap:round;stroke-linejoin:round;stroke-dasharray:28.3646,66.1842;}
	.st5{opacity:0.3;fill:#F9ECD5;}
	.st6{opacity:0.3;fill:#DE9627;}
	.st7{opacity:0.3;fill:#BB4E27;}
	.st8{opacity:0.3;}
	.st9{fill:none;stroke:#5E7559;stroke-width:5;stroke-linecap:round;stroke-linejoin:round;stroke-miterlimit:10;}
	.st10{fill:#5E7559;}
</style>
<g id="Layer_1">
</g>
<g id="Layer_2">
	<g>
		
			<image style="overflow:visible;" width="2304" height="2306" xlink:href="E8D0B6AD.png"  transform="matrix(0.24 0 0 0.24 -33.6 -33.6)">
		</image>
	</g>
</g>
<g id="Layer_3" class="st0">
	<g class="st1">
		<path d="M332.9,123.7H190.1v91.6h119.4c11.1,0,19.3,2.5,24.8,7.4c5.5,5,8.2,11.6,8.2,19.9s-2.8,14.9-8.3,19.8
			c-5.5,4.9-13.8,7.3-24.7,7.3H190.1v117.9c0,15-3.4,26.1-10.1,33.3c-6.8,7.2-15.4,10.9-26,10.9c-10.7,0-19.5-3.7-26.2-11
			c-6.8-7.3-10.1-18.4-10.1-33.2V112.3c0-10.4,1.5-18.9,4.6-25.5c3.1-6.6,7.9-11.4,14.5-14.4c6.6-3,15-4.5,25.3-4.5h170.9
			c11.6,0,20.1,2.6,25.8,7.7s8.4,11.8,8.4,20.1c0,8.5-2.8,15.3-8.4,20.4S344.4,123.7,332.9,123.7z"/>
	</g>
</g>
<g id="F">
	<g>
		<g>
			<line class="st2" x1="280" y1="78.2" x2="265" y2="78.2"/>
			<line class="st3" x1="206.3" y1="78.2" x2="151.8" y2="78.2"/>
			<polyline class="st2" points="122.4,78.2 107.4,78.2 107.4,93.2 			"/>
			<line class="st4" x1="107.4" y1="159.4" x2="107.4" y2="315.4"/>
			<line class="st2" x1="107.4" y1="348.5" x2="107.4" y2="363.5"/>
		</g>
	</g>
	<g>
		<line x1="240.8" y1="219.6" x2="140.2" y2="219.6"/>
		<g>
			<line class="st2" x1="240.8" y1="219.6" x2="212.3" y2="219.6"/>
			<line class="st2" x1="168.7" y1="219.6" x2="140.2" y2="219.6"/>
		</g>
	</g>
</g>
<g id="Details">
	<rect x="268.3" y="217.9" class="st5" width="17.7" height="13.4"/>
	<path class="st6" d="M276.7,210.5l-9.6,6c-0.7,0.4-0.4,1.5,0.4,1.5h19.3c0.8,0,1.1-1,0.4-1.5l-9.6-6
		C277.3,210.4,277,210.4,276.7,210.5z"/>
	<path class="st6" d="M277.2,206.8L277.2,206.8c0.3,0,0.5,0.2,0.5,0.5v4.5c0,0.3-0.2,0.5-0.5,0.5l0,0c-0.3,0-0.5-0.2-0.5-0.5v-4.5
		C276.8,207,277,206.8,277.2,206.8z"/>
	<path class="st6" d="M279.8,208.9l-1.9,0.9c-0.3,0.1-0.6-0.1-0.6-0.4l0-1.9c0-0.3,0.3-0.5,0.6-0.4l1.9,1
		C280.1,208.3,280.1,208.7,279.8,208.9z"/>
	<path class="st7" d="M283.1,219.8h-12c-0.6,0-1.1,0.5-1.1,1.1v10.9c0,0.6,0.5,1.1,1.1,1.1h12c0.6,0,1.1-0.5,1.1-1.1v-10.9
		C284.2,220.3,283.7,219.8,283.1,219.8z"/>
	<path class="st8" d="M285.8,234.5h-17.4c-0.9,0-1.6-0.7-1.6-1.6v0c0-0.9,0.7-1.6,1.6-1.6h17.4c0.9,0,1.6,0.7,1.6,1.6v0
		C287.4,233.8,286.7,234.5,285.8,234.5z"/>
	<path class="st5" d="M276.8,220.3c-0.8,1.2-2.8,3.8-5.6,4.4c-0.3,0.1-0.4,0.5-0.1,0.7c1.4,0.9,2.1,2.9,2.4,5.7
		c0,0.2,0.3,0.3,0.7,0.3h5.9c0.4,0,0.7-0.1,0.7-0.3c0.4-2.8,1-4.8,2.4-5.7c0.3-0.2,0.2-0.6-0.1-0.7c-2.7-0.6-4.9-3.3-5.6-4.4
		C277.3,220.1,277,220.1,276.8,220.3z"/>
	<rect x="297.9" y="228.5" class="st5" width="17.7" height="13.4"/>
	<path class="st6" d="M306.4,221.2l-9.6,6c-0.7,0.4-0.4,1.5,0.4,1.5h19.3c0.8,0,1.1-1,0.4-1.5l-9.6-6
		C306.9,221,306.6,221,306.4,221.2z"/>
	<path class="st6" d="M306.9,217.4L306.9,217.4c0.3,0,0.5,0.2,0.5,0.5v4.5c0,0.3-0.2,0.5-0.5,0.5l0,0c-0.3,0-0.5-0.2-0.5-0.5v-4.5
		C306.4,217.7,306.6,217.4,306.9,217.4z"/>
	<path class="st6" d="M309.4,219.5l-1.9,0.9c-0.3,0.1-0.6-0.1-0.6-0.4l0-1.9c0-0.3,0.3-0.5,0.6-0.4l1.9,1
		C309.7,218.9,309.7,219.4,309.4,219.5z"/>
	<path class="st7" d="M312.8,230.5h-12c-0.6,0-1.1,0.5-1.1,1.1v10.9c0,0.6,0.5,1.1,1.1,1.1h12c0.6,0,1.1-0.5,1.1-1.1v-10.9
		C313.8,230.9,313.3,230.5,312.8,230.5z"/>
	<path class="st8" d="M315.5,245.1h-17.4c-0.9,0-1.6-0.7-1.6-1.6l0,0c0-0.9,0.7-1.6,1.6-1.6h17.4c0.9,0,1.6,0.7,1.6,1.6l0,0
		C317.1,244.4,316.4,245.1,315.5,245.1z"/>
	<path class="st5" d="M306.5,230.9c-0.8,1.2-2.8,3.8-5.6,4.4c-0.3,0.1-0.4,0.5-0.1,0.7c1.4,0.9,2.1,2.9,2.4,5.7
		c0,0.2,0.3,0.3,0.7,0.3h5.9c0.4,0,0.7-0.1,0.7-0.3c0.4-2.8,1-4.8,2.4-5.7c0.3-0.2,0.2-0.6-0.1-0.7c-2.7-0.6-4.9-3.3-5.6-4.4
		C306.9,230.7,306.6,230.7,306.5,230.9z"/>
	<rect x="264.4" y="251.6" class="st5" width="17.7" height="13.4"/>
	<path class="st6" d="M272.8,244.2l-9.6,6c-0.7,0.4-0.4,1.5,0.4,1.5h19.3c0.8,0,1.1-1,0.4-1.5l-9.6-6
		C273.4,244.1,273.1,244.1,272.8,244.2z"/>
	<path class="st6" d="M273.3,240.5L273.3,240.5c0.3,0,0.5,0.2,0.5,0.5v4.5c0,0.3-0.2,0.5-0.5,0.5l0,0c-0.3,0-0.5-0.2-0.5-0.5V241
		C272.9,240.7,273.1,240.5,273.3,240.5z"/>
	<path class="st6" d="M275.9,242.6l-1.9,0.9c-0.3,0.1-0.6-0.1-0.6-0.4l0-1.9c0-0.3,0.3-0.5,0.6-0.4l1.9,1
		C276.2,242,276.2,242.4,275.9,242.6z"/>
	<path class="st7" d="M279.2,253.5h-12c-0.6,0-1.1,0.5-1.1,1.1v10.9c0,0.6,0.5,1.1,1.1,1.1h12c0.6,0,1.1-0.5,1.1-1.1v-10.9
		C280.3,254,279.8,253.5,279.2,253.5z"/>
	<path class="st8" d="M281.9,268.2h-17.4c-0.9,0-1.6-0.7-1.6-1.6l0,0c0-0.9,0.7-1.6,1.6-1.6h17.4c0.9,0,1.6,0.7,1.6,1.6l0,0
		C283.5,267.4,282.8,268.2,281.9,268.2z"/>
	<path class="st5" d="M272.9,254c-0.8,1.2-2.8,3.8-5.6,4.4c-0.3,0.1-0.4,0.5-0.1,0.7c1.4,0.9,2.1,2.9,2.4,5.7c0,0.2,0.3,0.3,0.7,0.3
		h5.9c0.4,0,0.7-0.1,0.7-0.3c0.4-2.8,1-4.8,2.4-5.7c0.3-0.2,0.2-0.6-0.1-0.7c-2.7-0.6-4.9-3.3-5.6-4.4
		C273.4,253.8,273.1,253.8,272.9,254z"/>
	<polygon class="st6" points="96.5,208.4 104.1,215.3 113,210.2 108.8,219.5 116.4,226.4 106.3,225.3 102.1,234.7 100,224.6 
		89.8,223.6 98.6,218.5 	"/>
	<polygon class="st6" points="133.6,367.7 141.3,374.5 150.1,369.4 146,378.8 153.6,385.6 143.4,384.5 139.2,393.9 137.1,383.9 
		126.9,382.8 135.8,377.7 	"/>
	<g class="st8">
		<line class="st9" x1="315.1" y1="61.5" x2="315.1" y2="103.7"/>
		<polyline class="st9" points="302.9,67.2 315.1,75.7 324.7,67.2 		"/>
		<polyline class="st9" points="304.4,81.8 315.1,88.2 324.7,80.7 		"/>
	</g>
	<g class="st8">
		<line class="st9" x1="345.8" y1="88.8" x2="345.8" y2="131.1"/>
		<polyline class="st9" points="337.3,95.7 345.8,103.1 354.1,95.6 		"/>
		<polyline class="st9" points="337.3,110.5 345.8,115.5 355.3,110 		"/>
	</g>
	<g class="st8">
		<line class="st9" x1="323" y1="110" x2="323" y2="130.5"/>
		<polyline class="st9" points="314.5,113.9 323,121.2 331.4,113.7 		"/>
	</g>
	<g class="st8">
		<path class="st9" d="M156.3,133l8.3-7.1c5.8-4.9,14.2-5.2,20.3-0.7l2.6,1.9c4.8,3.5,11.2,3.8,16.2,0.7l16.6-10.3"/>
		<path class="st9" d="M154,152l13.8-9.9c3.9-3.3,9.5-3.5,13.6-0.5l9,6.7c3,2.2,7,2.4,10.1,0.4l14.3-12.3"/>
		<path class="st9" d="M155,170.9l6.3-7.1c5.8-4.9,14.2-5.2,20.3-0.7l2.6,1.9c4.8,3.5,11.2,3.8,16.2,0.7l16.6-14.2"/>
	</g>
	<g class="st8">
		<path class="st10" d="M206.5,316.1c0,0-14.4,9.4-16.2,10.3c-19.2,10.3-25.8-8.8-24.4-19.8c0.7-5.5,5.6-14.2,1.9-17.1
			c-6.8-5.3-5.4-12.8-3.2-15.9c2.1-2.8,5.5-7,12.2-6.8c9.4,0.4,7.3,11.3,14.3,15c7.9,4.2,18.9,3.4,21.7,7.5
			C218.4,297.4,210.9,313.9,206.5,316.1z"/>
		<path class="st10" d="M334.9,395.4c-12.8-9.9-17.5-22.8-21.7-34.2c-3.3-9-6.5-17.5-13.1-24.3c-7.8-8-18.5-6.9-30.8-5.7
			c-9.4,0.9-19,1.9-28.3-1.2c-21-7.1-39.2-26.6-40-27.4c-2.3-2.4-2.1-6.2,0.3-8.5c2.4-2.3,6.2-2.1,8.5,0.3l0,0
			c0.2,0.2,17,18.1,35.1,24.2c6.8,2.3,14.8,1.5,23.3,0.7c13.4-1.3,28.7-2.8,40.6,9.3c8.4,8.6,12.2,18.7,15.8,28.5
			c4,10.9,7.8,21.1,17.8,28.9c21.6,16.8,49.7,34.5,51,48.3c0.3,3.4,0.6,1.3-2.1,3.2C390.2,438.3,355.9,411.7,334.9,395.4z"/>
		<path class="st10" d="M387.2,438c0,0,13.3-6.7,14.7-12.4s2.2,10.7,8.9,12.4S387.2,438,387.2,438z"/>
		<path class="st10" d="M400,445.9c0,0,13.3-6.7,14.7-12.4s2.2,10.7,8.9,12.4S400,445.9,400,445.9z"/>
		<path class="st10" d="M376.7,447c0,0,3.8-6,5.1-11.8c1.3-5.8,3.8,8.3,18.4,11.8C406.9,448.6,376.7,447,376.7,447z"/>
	</g>
</g>
</svg>
